<?xml version="1.0" encoding="utf-8"?>
<!-- Generator: Adobe Illustrator 25.4.1, SVG Export Plug-In . SVG Version: 6.00 Build 0)  -->
<svg version="1.1" id="Layer_1" focusable="false" xmlns="http://www.w3.org/2000/svg" xmlns:xlink="http://www.w3.org/1999/xlink"
	 x="0px" y="0px" viewBox="0 0 496 512" style="enable-background:new 0 0 496 512;" xml:space="preserve">
<style type="text/css">
	.st0{fill:#FFFFFF;}
</style>
<g>
	<path class="st0" d="M248,8C111,8,0,119,0,256s111,248,248,248s248-111,248-248S385,8,248,8z M248,456c-110.3,0-200-89.7-200-200
		S137.7,56,248,56s200,89.7,200,200S358.3,456,248,456z"/>
	<path class="st0" d="M248,312c-33.6,0-65.2,14.8-86.8,40.6c-8.5,10.2-7.1,25.3,3.1,33.8s25.3,7.2,33.8-3c24.8-29.7,75-29.7,99.8,0
		c8.1,9.7,23.2,11.9,33.8,3c10.2-8.5,11.5-23.6,3.1-33.8C313.2,326.8,281.6,312,248,312z"/>
	<path class="st0" d="M200,240c10.3,0,19.9-6.7,23-17.1c3.8-12.7-3.4-26.1-16.1-29.9l-80-24c-12.8-3.9-26.1,3.4-29.9,16.1
		s3.4,26.1,16.1,29.9l28.2,8.5c-3.1,4.9-5.3,10.4-5.3,16.6c0,17.7,14.3,32,32,32S200,257.7,200,240z"/>
	<path class="st0" d="M399,185.1L399,185.1c-3.8-12.7-17.1-19.9-29.9-16.1l-80,24c-12.7,3.8-19.9,17.2-16.1,29.9
		c3.1,10.4,12.7,17.1,23,17.1c0,17.7,14.3,32,32,32s32-14.3,32-32c0-6.2-2.2-11.7-5.3-16.6l28.2-8.5
		C395.6,211.2,402.8,197.8,399,185.1z"/>
</g>
</svg>
